<?xml version="1.0" encoding="UTF-8" standalone="no"?>
<svg
   xmlns:dc="http://purl.org/dc/elements/1.1/"
   xmlns:cc="http://creativecommons.org/ns#"
   xmlns:rdf="http://www.w3.org/1999/02/22-rdf-syntax-ns#"
   xmlns:svg="http://www.w3.org/2000/svg"
   xmlns="http://www.w3.org/2000/svg"
   xmlns:sodipodi="http://sodipodi.sourceforge.net/DTD/sodipodi-0.dtd"
   xmlns:inkscape="http://www.inkscape.org/namespaces/inkscape"
   width="306.96722mm"
   height="376.62564mm"
   viewBox="0 0 870.1443 1067.6016"
   version="1.2"
   id="svg1379"
   sodipodi:docname="segmented_graph.svg"
   inkscape:version="1.0 (4035a4f, 2020-05-01)">
  <metadata
     id="metadata1383">
    <rdf:RDF>
      <cc:Work
         rdf:about="">
        <dc:format>image/svg+xml</dc:format>
        <dc:type
           rdf:resource="http://purl.org/dc/dcmitype/StillImage" />
        <dc:title>Qt SVG Document</dc:title>
      </cc:Work>
    </rdf:RDF>
  </metadata>
  <sodipodi:namedview
     inkscape:document-rotation="0"
     pagecolor="#ffffff"
     bordercolor="#666666"
     borderopacity="1"
     objecttolerance="10"
     gridtolerance="10"
     guidetolerance="10"
     inkscape:pageopacity="0"
     inkscape:pageshadow="2"
     inkscape:window-width="1920"
     inkscape:window-height="972"
     id="namedview1381"
     showgrid="false"
     fit-margin-top="-10"
     fit-margin-left="-10"
     fit-margin-right="-20"
     fit-margin-bottom="-10"
     inkscape:zoom="0.44973122"
     inkscape:cx="567.59896"
     inkscape:cy="605.89768"
     inkscape:window-x="1440"
     inkscape:window-y="25"
     inkscape:window-maximized="1"
     inkscape:current-layer="g1209" />
  <title
     id="title1201">Qt SVG Document</title>
  <desc
     id="desc1203">Generated with Qt</desc>
  <defs
     id="defs1205" />
  <g
     fill="none"
     stroke="#000000"
     stroke-width="1"
     fill-rule="evenodd"
     stroke-linecap="square"
     stroke-linejoin="bevel"
     id="g1377"
     transform="translate(-178.63477,76.303794)">
    <g
       fill="#ffffff"
       fill-opacity="1"
       stroke="none"
       transform="rotate(-89.370412,585.36125,428.66681)"
       font-family="'.AppleSystemUIFont'"
       font-size="13px"
       font-weight="400"
       font-style="normal"
       id="g1209">
      <rect
         x="0"
         y="0"
         width="1114"
         height="943"
         id="rect1207" />
    </g>
    <g
       fill="none"
       stroke="#000000"
       stroke-opacity="1"
       stroke-width="1"
       stroke-linecap="square"
       stroke-linejoin="bevel"
       font-family="'.AppleSystemUIFont'"
       font-size="13px"
       font-weight="400"
       font-style="normal"
       id="g1211" />
    <g
       fill="none"
       stroke="#000000"
       stroke-opacity="1"
       stroke-width="1"
       stroke-linecap="square"
       stroke-linejoin="bevel"
       font-family="'.AppleSystemUIFont'"
       font-size="13px"
       font-weight="400"
       font-style="normal"
       id="g1213" />
    <g
       fill="none"
       stroke="#000000"
       stroke-opacity="1"
       stroke-width="1"
       stroke-linecap="square"
       stroke-linejoin="bevel"
       transform="matrix(5.67077,0,0,5.67077,-81.7822,-82.8339)"
       font-family="'.AppleSystemUIFont'"
       font-size="13px"
       font-weight="400"
       font-style="normal"
       id="g1215" />
    <g
       fill="none"
       stroke="#000000"
       stroke-opacity="0.705882"
       stroke-width="1.5"
       stroke-linecap="round"
       stroke-linejoin="bevel"
       transform="matrix(0.06231136,-5.6704277,5.6704277,0.06231136,64.054782,1089.1435)"
       font-family="'.AppleSystemUIFont'"
       font-size="13px"
       font-weight="400"
       font-style="normal"
       id="g1219">
      <path
         vector-effect="none"
         fill-rule="evenodd"
         d="m 193.338,98.7207 c 1.427,-2.0266 6.607,1.0673 4.903,-0.7328"
         id="path1217" />
    </g>
    <g
       fill="none"
       stroke="#000000"
       stroke-opacity="1"
       stroke-width="1"
       stroke-linecap="square"
       stroke-linejoin="bevel"
       transform="matrix(5.67077,0,0,5.67077,-81.7822,-82.8339)"
       font-family="'.AppleSystemUIFont'"
       font-size="13px"
       font-weight="400"
       font-style="normal"
       id="g1221" />
    <g
       fill="none"
       stroke="#000000"
       stroke-opacity="1"
       stroke-width="1"
       stroke-linecap="square"
       stroke-linejoin="bevel"
       transform="matrix(5.67077,0,0,5.67077,-81.7822,-82.8339)"
       font-family="'.AppleSystemUIFont'"
       font-size="13px"
       font-weight="400"
       font-style="normal"
       id="g1223" />
    <g
       fill="none"
       stroke="#000000"
       stroke-opacity="0.705882"
       stroke-width="1.5"
       stroke-linecap="round"
       stroke-linejoin="bevel"
       transform="matrix(0.06231136,-5.6704277,5.6704277,0.06231136,64.054782,1089.1435)"
       font-family="'.AppleSystemUIFont'"
       font-size="13px"
       font-weight="400"
       font-style="normal"
       id="g1227">
      <path
         vector-effect="none"
         fill-rule="evenodd"
         d="m 176.37,127.206 c -0.273,-2.63 4.115,0.367 4.817,-2.182"
         id="path1225" />
    </g>
    <g
       fill="none"
       stroke="#000000"
       stroke-opacity="1"
       stroke-width="1"
       stroke-linecap="square"
       stroke-linejoin="bevel"
       transform="matrix(5.67077,0,0,5.67077,-81.7822,-82.8339)"
       font-family="'.AppleSystemUIFont'"
       font-size="13px"
       font-weight="400"
       font-style="normal"
       id="g1229" />
    <g
       fill="none"
       stroke="#000000"
       stroke-opacity="1"
       stroke-width="1"
       stroke-linecap="square"
       stroke-linejoin="bevel"
       transform="matrix(5.67077,0,0,5.67077,-81.7822,-82.8339)"
       font-family="'.AppleSystemUIFont'"
       font-size="13px"
       font-weight="400"
       font-style="normal"
       id="g1231" />
    <g
       fill="none"
       stroke="#000000"
       stroke-opacity="0.705882"
       stroke-width="1.5"
       stroke-linecap="round"
       stroke-linejoin="bevel"
       transform="matrix(0.06231136,-5.6704277,5.6704277,0.06231136,64.054782,1089.1435)"
       font-family="'.AppleSystemUIFont'"
       font-size="13px"
       font-weight="400"
       font-style="normal"
       id="g1235">
      <path
         vector-effect="none"
         fill-rule="evenodd"
         d="m 176.37,127.206 c -0.271,-2.615 -3.636,-1.833 -2.931,-4.365"
         id="path1233" />
    </g>
    <g
       fill="none"
       stroke="#000000"
       stroke-opacity="1"
       stroke-width="1"
       stroke-linecap="square"
       stroke-linejoin="bevel"
       transform="matrix(5.67077,0,0,5.67077,-81.7822,-82.8339)"
       font-family="'.AppleSystemUIFont'"
       font-size="13px"
       font-weight="400"
       font-style="normal"
       id="g1237" />
    <g
       fill="none"
       stroke="#000000"
       stroke-opacity="1"
       stroke-width="1"
       stroke-linecap="square"
       stroke-linejoin="bevel"
       transform="matrix(5.67077,0,0,5.67077,-81.7822,-82.8339)"
       font-family="'.AppleSystemUIFont'"
       font-size="13px"
       font-weight="400"
       font-style="normal"
       id="g1239" />
    <g
       fill="none"
       stroke="#000000"
       stroke-opacity="0.705882"
       stroke-width="1.5"
       stroke-linecap="round"
       stroke-linejoin="bevel"
       transform="matrix(0.06231136,-5.6704277,5.6704277,0.06231136,64.054782,1089.1435)"
       font-family="'.AppleSystemUIFont'"
       font-size="13px"
       font-weight="400"
       font-style="normal"
       id="g1243">
      <path
         vector-effect="none"
         fill-rule="evenodd"
         d="m 182.596,119.912 c 0.7,-2.541 -4.792,-2.408 -2.996,-4.338"
         id="path1241" />
    </g>
    <g
       fill="none"
       stroke="#000000"
       stroke-opacity="1"
       stroke-width="1"
       stroke-linecap="square"
       stroke-linejoin="bevel"
       transform="matrix(5.67077,0,0,5.67077,-81.7822,-82.8339)"
       font-family="'.AppleSystemUIFont'"
       font-size="13px"
       font-weight="400"
       font-style="normal"
       id="g1245" />
    <g
       fill="none"
       stroke="#000000"
       stroke-opacity="1"
       stroke-width="1"
       stroke-linecap="square"
       stroke-linejoin="bevel"
       transform="matrix(5.67077,0,0,5.67077,-81.7822,-82.8339)"
       font-family="'.AppleSystemUIFont'"
       font-size="13px"
       font-weight="400"
       font-style="normal"
       id="g1247" />
    <g
       fill="none"
       stroke="#000000"
       stroke-opacity="0.705882"
       stroke-width="1.5"
       stroke-linecap="round"
       stroke-linejoin="bevel"
       transform="matrix(0.06231136,-5.6704277,5.6704277,0.06231136,64.054782,1089.1435)"
       font-family="'.AppleSystemUIFont'"
       font-size="13px"
       font-weight="400"
       font-style="normal"
       id="g1251">
      <path
         vector-effect="none"
         fill-rule="evenodd"
         d="m 174.86,117.743 c 0.7,-2.511 2.964,-0.261 4.74,-2.169"
         id="path1249" />
    </g>
    <g
       fill="none"
       stroke="#000000"
       stroke-opacity="1"
       stroke-width="1"
       stroke-linecap="square"
       stroke-linejoin="bevel"
       transform="matrix(5.67077,0,0,5.67077,-81.7822,-82.8339)"
       font-family="'.AppleSystemUIFont'"
       font-size="13px"
       font-weight="400"
       font-style="normal"
       id="g1253" />
    <g
       fill="none"
       stroke="#000000"
       stroke-opacity="1"
       stroke-width="1"
       stroke-linecap="square"
       stroke-linejoin="bevel"
       transform="matrix(5.67077,0,0,5.67077,-81.7822,-82.8339)"
       font-family="'.AppleSystemUIFont'"
       font-size="13px"
       font-weight="400"
       font-style="normal"
       id="g1255" />
    <g
       fill="none"
       stroke="#000000"
       stroke-opacity="0.705882"
       stroke-width="1.5"
       stroke-linecap="round"
       stroke-linejoin="bevel"
       transform="matrix(0.06231136,-5.6704277,5.6704277,0.06231136,64.054782,1089.1435)"
       font-family="'.AppleSystemUIFont'"
       font-size="13px"
       font-weight="400"
       font-style="normal"
       id="g1259">
      <path
         vector-effect="none"
         fill-rule="evenodd"
         d="m 199.946,102.975 c 0.381,-2.608 0.106,-3.0732 -1.705,-4.9871"
         id="path1257" />
    </g>
    <g
       fill="none"
       stroke="#000000"
       stroke-opacity="1"
       stroke-width="1"
       stroke-linecap="square"
       stroke-linejoin="bevel"
       transform="matrix(5.67077,0,0,5.67077,-81.7822,-82.8339)"
       font-family="'.AppleSystemUIFont'"
       font-size="13px"
       font-weight="400"
       font-style="normal"
       id="g1261" />
    <g
       fill="none"
       stroke="#000000"
       stroke-opacity="1"
       stroke-width="1"
       stroke-linecap="square"
       stroke-linejoin="bevel"
       transform="matrix(5.67077,0,0,5.67077,-81.7822,-82.8339)"
       font-family="'.AppleSystemUIFont'"
       font-size="13px"
       font-weight="400"
       font-style="normal"
       id="g1263" />
    <g
       fill="none"
       stroke="#000000"
       stroke-opacity="0.705882"
       stroke-width="1.5"
       stroke-linecap="round"
       stroke-linejoin="bevel"
       transform="matrix(0.06231136,-5.6704277,5.6704277,0.06231136,64.054782,1089.1435)"
       font-family="'.AppleSystemUIFont'"
       font-size="13px"
       font-weight="400"
       font-style="normal"
       id="g1267">
      <path
         vector-effect="none"
         fill-rule="evenodd"
         d="m 180.525,141.28 c 2.332,-0.97 -2.845,-1.471 -3.106,-3.983"
         id="path1265" />
    </g>
    <g
       fill="none"
       stroke="#000000"
       stroke-opacity="1"
       stroke-width="1"
       stroke-linecap="square"
       stroke-linejoin="bevel"
       transform="matrix(5.67077,0,0,5.67077,-81.7822,-82.8339)"
       font-family="'.AppleSystemUIFont'"
       font-size="13px"
       font-weight="400"
       font-style="normal"
       id="g1269" />
    <g
       fill="none"
       stroke="#000000"
       stroke-opacity="1"
       stroke-width="1"
       stroke-linecap="square"
       stroke-linejoin="bevel"
       transform="matrix(5.67077,0,0,5.67077,-81.7822,-82.8339)"
       font-family="'.AppleSystemUIFont'"
       font-size="13px"
       font-weight="400"
       font-style="normal"
       id="g1271" />
    <g
       fill="none"
       stroke="#000000"
       stroke-opacity="0.705882"
       stroke-width="1.5"
       stroke-linecap="round"
       stroke-linejoin="bevel"
       transform="matrix(0.06231136,-5.6704277,5.6704277,0.06231136,64.054782,1089.1435)"
       font-family="'.AppleSystemUIFont'"
       font-size="13px"
       font-weight="400"
       font-style="normal"
       id="g1275">
      <path
         vector-effect="none"
         fill-rule="evenodd"
         d="m 180.525,141.28 c 2.449,-1.018 3.12,-0.354 4.679,-2.5"
         id="path1273" />
    </g>
    <g
       fill="none"
       stroke="#000000"
       stroke-opacity="1"
       stroke-width="1"
       stroke-linecap="square"
       stroke-linejoin="bevel"
       transform="matrix(5.67077,0,0,5.67077,-81.7822,-82.8339)"
       font-family="'.AppleSystemUIFont'"
       font-size="13px"
       font-weight="400"
       font-style="normal"
       id="g1277" />
    <g
       fill="none"
       stroke="#000000"
       stroke-opacity="1"
       stroke-width="1"
       stroke-linecap="square"
       stroke-linejoin="bevel"
       transform="matrix(5.67077,0,0,5.67077,-81.7822,-82.8339)"
       font-family="'.AppleSystemUIFont'"
       font-size="13px"
       font-weight="400"
       font-style="normal"
       id="g1279" />
    <g
       fill="none"
       stroke="#000000"
       stroke-opacity="0.705882"
       stroke-width="1.5"
       stroke-linecap="round"
       stroke-linejoin="bevel"
       transform="matrix(0.06231136,-5.6704277,5.6704277,0.06231136,64.054782,1089.1435)"
       font-family="'.AppleSystemUIFont'"
       font-size="13px"
       font-weight="400"
       font-style="normal"
       id="g1283">
      <path
         vector-effect="none"
         fill-rule="evenodd"
         d="m 87.5763,91.0318 c -2.3223,1.2673 -2.7371,4.8576 -4.4588,2.8489"
         id="path1281" />
    </g>
    <g
       fill="none"
       stroke="#000000"
       stroke-opacity="1"
       stroke-width="1"
       stroke-linecap="square"
       stroke-linejoin="bevel"
       transform="matrix(5.67077,0,0,5.67077,-81.7822,-82.8339)"
       font-family="'.AppleSystemUIFont'"
       font-size="13px"
       font-weight="400"
       font-style="normal"
       id="g1285" />
    <g
       fill="none"
       stroke="#000000"
       stroke-opacity="1"
       stroke-width="1"
       stroke-linecap="square"
       stroke-linejoin="bevel"
       transform="matrix(5.67077,0,0,5.67077,-81.7822,-82.8339)"
       font-family="'.AppleSystemUIFont'"
       font-size="13px"
       font-weight="400"
       font-style="normal"
       id="g1287" />
    <g
       fill="none"
       stroke="#000000"
       stroke-opacity="0.705882"
       stroke-width="1.5"
       stroke-linecap="round"
       stroke-linejoin="bevel"
       transform="matrix(0.06231136,-5.6704277,5.6704277,0.06231136,64.054782,1089.1435)"
       font-family="'.AppleSystemUIFont'"
       font-size="13px"
       font-weight="400"
       font-style="normal"
       id="g1291">
      <path
         vector-effect="none"
         fill-rule="evenodd"
         d="m 81.823,99.1123 c 1.908,-1.9029 3.0482,-3.1856 1.2945,-5.2316"
         id="path1289" />
    </g>
    <g
       fill="none"
       stroke="#000000"
       stroke-opacity="1"
       stroke-width="1"
       stroke-linecap="square"
       stroke-linejoin="bevel"
       transform="matrix(5.67077,0,0,5.67077,-81.7822,-82.8339)"
       font-family="'.AppleSystemUIFont'"
       font-size="13px"
       font-weight="400"
       font-style="normal"
       id="g1293" />
    <g
       fill="none"
       stroke="#000000"
       stroke-opacity="1"
       stroke-width="1"
       stroke-linecap="square"
       stroke-linejoin="bevel"
       transform="matrix(5.67077,0,0,5.67077,-81.7822,-82.8339)"
       font-family="'.AppleSystemUIFont'"
       font-size="13px"
       font-weight="400"
       font-style="normal"
       id="g1295" />
    <g
       fill="none"
       stroke="#000000"
       stroke-opacity="0.705882"
       stroke-width="1.5"
       stroke-linecap="round"
       stroke-linejoin="bevel"
       transform="matrix(0.06231136,-5.6704277,5.6704277,0.06231136,64.054782,1089.1435)"
       font-family="'.AppleSystemUIFont'"
       font-size="13px"
       font-weight="400"
       font-style="normal"
       id="g1299"
       style="fill:#cccccc">
      <path
         vector-effect="none"
         fill-rule="evenodd"
         d="m 81.823,99.1123 c 1.8484,-1.8434 1.2038,2.3247 2.6432,4.5027"
         id="path1297"
         style="fill:#cccccc" />
    </g>
    <g
       fill="none"
       stroke="#000000"
       stroke-opacity="1"
       stroke-width="1"
       stroke-linecap="square"
       stroke-linejoin="bevel"
       transform="matrix(5.67077,0,0,5.67077,-81.7822,-82.8339)"
       font-family="'.AppleSystemUIFont'"
       font-size="13px"
       font-weight="400"
       font-style="normal"
       id="g1301" />
    <g
       fill="none"
       stroke="#000000"
       stroke-opacity="1"
       stroke-width="1"
       stroke-linecap="square"
       stroke-linejoin="bevel"
       transform="matrix(5.67077,0,0,5.67077,-81.7822,-82.8339)"
       font-family="'.AppleSystemUIFont'"
       font-size="13px"
       font-weight="400"
       font-style="normal"
       id="g1303" />
    <g
       fill="#dcdcdc"
       fill-opacity="1"
       stroke="none"
       transform="matrix(0.06231136,-5.6704277,5.6704277,0.06231136,64.054782,1089.1435)"
       font-family="'.AppleSystemUIFont'"
       font-size="13px"
       font-weight="400"
       font-style="normal"
       id="g1307"
       style="fill:#ffb380">
      <path
         vector-effect="none"
         fill-rule="nonzero"
         d="m 23.8566,169.918 7.9782,-13.208 c 0.0132,-0.022 0.027,-0.044 0.0414,-0.065 h 10e-5 l 9.409,-13.907 c 0.0164,-0.025 0.0336,-0.048 0.0515,-0.072 h 1e-4 l 11.1772,-14.59 c 0.0204,-0.027 0.0418,-0.053 0.064,-0.078 h 1e-4 l 13.0442,-14.843 c 0.0217,-0.024 0.0442,-0.048 0.0675,-0.071 v 0 l 15.0738,-15.0337 2.1185,2.1237 -15.0739,15.034 -1.0592,-1.062 1.1267,0.99 -13.0442,14.842 -1.1267,-0.99 1.1907,0.912 -11.1772,14.591 -1.1907,-0.912 1.2423,0.84 -9.4089,13.907 -1.2424,-0.84 1.284,0.775 -7.9782,13.208 -2.5679,-1.551"
         id="path1305"
         style="fill:#ffb380" />
    </g>
    <g
       fill="none"
       stroke="#000000"
       stroke-opacity="1"
       stroke-width="1"
       stroke-linecap="square"
       stroke-linejoin="bevel"
       transform="matrix(5.67077,0,0,5.67077,-81.7822,-82.8339)"
       font-family="'.AppleSystemUIFont'"
       font-size="13px"
       font-weight="400"
       font-style="normal"
       id="g1309" />
    <g
       fill="none"
       stroke="#000000"
       stroke-opacity="1"
       stroke-width="1"
       stroke-linecap="square"
       stroke-linejoin="bevel"
       transform="matrix(5.67077,0,0,5.67077,-81.7822,-82.8339)"
       font-family="'.AppleSystemUIFont'"
       font-size="13px"
       font-weight="400"
       font-style="normal"
       id="g1311" />
    <g
       fill="#dcdcdc"
       fill-opacity="1"
       stroke="none"
       transform="matrix(0.06231136,-5.6704277,5.6704277,0.06231136,64.054782,1089.1435)"
       font-family="'.AppleSystemUIFont'"
       font-size="13px"
       font-weight="400"
       font-style="normal"
       id="g1315"
       style="fill:#e9afaf">
      <path
         vector-effect="none"
         fill-rule="nonzero"
         d="m 85.7176,102.788 10.9876,16.625 -1.2514,0.828 1.1476,-0.966 12.5146,14.868 -1.148,0.966 0.882,-1.214 15.458,11.23 -0.882,1.213 0.409,-1.443 18.291,5.181 -0.409,1.443 -0.165,-1.491 19.319,-2.134 0.164,1.491 -0.576,-1.385 19.49,-8.105 1.152,2.77 -19.49,8.105 c -0.128,0.054 -0.266,0.091 -0.41,0.106 H 161.2 l -19.319,2.134 c -0.053,0.006 -0.108,0.009 -0.164,0.009 -0.142,0 -0.28,-0.02 -0.409,-0.057 v 0 l -18.29,-5.181 c -0.173,-0.048 -0.332,-0.127 -0.473,-0.229 v 0 l -15.459,-11.23 c -0.098,-0.071 -0.187,-0.155 -0.266,-0.247 v -10e-4 L 94.3062,121.206 c -0.0373,-0.044 -0.072,-0.09 -0.1039,-0.138 v 0 l -10.9875,-16.626 2.5028,-1.654"
         id="path1313"
         style="fill:#e9afaf" />
    </g>
    <g
       fill="none"
       stroke="#000000"
       stroke-opacity="1"
       stroke-width="1"
       stroke-linecap="square"
       stroke-linejoin="bevel"
       transform="matrix(5.67077,0,0,5.67077,-81.7822,-82.8339)"
       font-family="'.AppleSystemUIFont'"
       font-size="13px"
       font-weight="400"
       font-style="normal"
       id="g1317" />
    <g
       fill="none"
       stroke="#000000"
       stroke-opacity="1"
       stroke-width="1"
       stroke-linecap="square"
       stroke-linejoin="bevel"
       transform="matrix(5.67077,0,0,5.67077,-81.7822,-82.8339)"
       font-family="'.AppleSystemUIFont'"
       font-size="13px"
       font-weight="400"
       font-style="normal"
       id="g1319" />
    <g
       fill="#dcdcdc"
       fill-opacity="1"
       stroke="none"
       transform="matrix(0.06231136,-5.6704277,5.6704277,0.06231136,64.054782,1089.1435)"
       font-family="'.AppleSystemUIFont'"
       font-size="13px"
       font-weight="400"
       font-style="normal"
       id="g1323"
       style="fill:#ffb380">
      <path
         vector-effect="none"
         fill-rule="nonzero"
         d="M 81.9786,94.8568 68.3214,78.9233 c -0.0028,-0.0032 -0.0056,-0.0065 -0.0083,-0.0097 v 0 L 55.7951,64.0568 c -7e-4,-8e-4 -0.0014,-0.0017 -0.0021,-0.0025 v 0 L 44.1933,50.2268 c -1e-4,-10e-5 -2e-4,-3e-4 -4e-4,-4e-4 l 10e-5,-10e-5 -10.5855,-12.6281 1.1496,-0.9636 -1.1493,0.9639 -9.7571,-11.6346 2.2986,-1.9278 9.7571,11.6347 c 1e-4,0 2e-4,1e-4 3e-4,2e-4 v 0 l 10.5854,12.6281 -1.1496,0.9636 1.1492,-0.964 11.5997,13.8275 -1.1492,0.9641 1.1471,-0.9666 12.518,14.8568 -1.1471,0.9666 1.1389,-0.9762 13.6573,15.9336 -2.2778,1.9523"
         id="path1321"
         style="fill:#ffb380" />
    </g>
    <g
       fill="none"
       stroke="#000000"
       stroke-opacity="1"
       stroke-width="1"
       stroke-linecap="square"
       stroke-linejoin="bevel"
       transform="matrix(5.67077,0,0,5.67077,-81.7822,-82.8339)"
       font-family="'.AppleSystemUIFont'"
       font-size="13px"
       font-weight="400"
       font-style="normal"
       id="g1325" />
    <g
       fill="none"
       stroke="#000000"
       stroke-opacity="1"
       stroke-width="1"
       stroke-linecap="square"
       stroke-linejoin="bevel"
       transform="matrix(5.67077,0,0,5.67077,-81.7822,-82.8339)"
       font-family="'.AppleSystemUIFont'"
       font-size="13px"
       font-weight="400"
       font-style="normal"
       id="g1327" />
    <g
       fill="#dcdcdc"
       fill-opacity="1"
       stroke="none"
       transform="matrix(5.67077,0,0,5.67077,-81.7822,-82.8339)"
       font-family="'.AppleSystemUIFont'"
       font-size="13px"
       font-weight="400"
       font-style="normal"
       id="g1331"
       style="fill:#e9afaf">
      <path
         vector-effect="none"
         fill-rule="nonzero"
         d="m 126.89676,10.618835 -15.91651,14.738997 -1.01916,-1.101265 1.32434,0.704594 -9.54101,17.940245 -1.32444,-0.704595 1.48474,0.214327 -2.862882,19.903743 -1.484734,-0.214327 1.483892,-0.218708 2.967594,20.083821 -1.4839,0.219708 1.4033,-0.529612 7.2863,19.297227 -1.4033,0.52961 1.32451,-0.70349 9.89493,18.61605 -2.64903,1.40798 -9.89493,-18.61605 c -0.03,-0.0564 -0.0565,-0.11362 -0.079,-0.17388 h 2e-4 L 99.121387,82.714987 c -0.03782,-0.09843 -0.06498,-0.202727 -0.0807,-0.309905 l 9.9e-5,1e-6 -2.967584,-20.084821 c -0.01145,-0.07713 -0.01689,-0.155194 -0.016,-0.236189 0.0091,-0.827951 0.688042,-1.49253 1.516392,-1.483428 0.82835,0.0091 1.492525,0.688442 1.483427,1.516392 -0.0091,0.82895 -0.688042,1.49253 -1.516391,1.483427 -0.595864,-0.0066 -1.106821,-0.359183 -1.343168,-0.865811 l -0.125098,-0.847426 2.862979,-19.903743 c 0.02491,-0.175738 0.08016,-0.341139 0.160107,-0.49127 l 1.9e-4,0.001 9.54102,-17.941245 c 0.0791,-0.148139 0.18271,-0.282009 0.30526,-0.395669 v 0 l 15.91651,-14.7389965 2.03834,2.2015295"
         id="path1329"
         style="fill:#e9afaf" />
    </g>
    <g
       fill="none"
       stroke="#000000"
       stroke-opacity="1"
       stroke-width="1"
       stroke-linecap="square"
       stroke-linejoin="bevel"
       transform="matrix(5.67077,0,0,5.67077,-81.7822,-82.8339)"
       font-family="'.AppleSystemUIFont'"
       font-size="13px"
       font-weight="400"
       font-style="normal"
       id="g1333" />
    <g
       fill="none"
       stroke="#000000"
       stroke-opacity="1"
       stroke-width="1"
       stroke-linecap="square"
       stroke-linejoin="bevel"
       transform="matrix(5.67077,0,0,5.67077,-81.7822,-82.8339)"
       font-family="'.AppleSystemUIFont'"
       font-size="13px"
       font-weight="400"
       font-style="normal"
       id="g1335" />
    <g
       fill="#dcdcdc"
       fill-opacity="1"
       stroke="none"
       transform="matrix(0.06231136,-5.6704277,5.6704277,0.06231136,64.054782,1089.1435)"
       font-family="'.AppleSystemUIFont'"
       font-size="13px"
       font-weight="400"
       font-style="normal"
       id="g1339"
       style="fill:#e9afaf">
      <path
         vector-effect="none"
         fill-rule="nonzero"
         d="m 183.99,137.898 11.906,-16.392 1.214,0.881 -1.485,-0.217 2.837,-19.412 2.968,0.434 -2.836,19.412 c -0.036,0.246 -0.131,0.473 -0.271,0.665 v -0.001 l -11.905,16.393 -2.428,-1.763"
         id="path1337"
         style="fill:#e9afaf" />
    </g>
    <g
       fill="none"
       stroke="#000000"
       stroke-opacity="1"
       stroke-width="1"
       stroke-linecap="square"
       stroke-linejoin="bevel"
       transform="matrix(5.67077,0,0,5.67077,-81.7822,-82.8339)"
       font-family="'.AppleSystemUIFont'"
       font-size="13px"
       font-weight="400"
       font-style="normal"
       id="g1341" />
    <g
       fill="none"
       stroke="#000000"
       stroke-opacity="1"
       stroke-width="1"
       stroke-linecap="square"
       stroke-linejoin="bevel"
       transform="matrix(5.67077,0,0,5.67077,-81.7822,-82.8339)"
       font-family="'.AppleSystemUIFont'"
       font-size="13px"
       font-weight="400"
       font-style="normal"
       id="g1343" />
    <g
       fill="#dcdcdc"
       fill-opacity="1"
       stroke="none"
       transform="matrix(0.06231136,-5.6704277,5.6704277,0.06231136,64.054782,1089.1435)"
       font-family="'.AppleSystemUIFont'"
       font-size="13px"
       font-weight="400"
       font-style="normal"
       id="g1347"
       style="fill:#6c5353">
      <path
         vector-effect="none"
         fill-rule="nonzero"
         d="m 178.502,114.552 7.669,-8.236 1.098,1.022 -1.227,-0.864 6.069,-8.6169 2.453,1.7273 -6.069,8.6176 c -0.039,0.056 -0.082,0.108 -0.128,0.158 v 0 l -7.669,8.237 -2.196,-2.045"
         id="path1345"
         style="fill:#6c5353" />
    </g>
    <g
       fill="none"
       stroke="#000000"
       stroke-opacity="1"
       stroke-width="1"
       stroke-linecap="square"
       stroke-linejoin="bevel"
       transform="matrix(5.67077,0,0,5.67077,-81.7822,-82.8339)"
       font-family="'.AppleSystemUIFont'"
       font-size="13px"
       font-weight="400"
       font-style="normal"
       id="g1349" />
    <g
       fill="none"
       stroke="#000000"
       stroke-opacity="1"
       stroke-width="1"
       stroke-linecap="square"
       stroke-linejoin="bevel"
       transform="matrix(5.67077,0,0,5.67077,-81.7822,-82.8339)"
       font-family="'.AppleSystemUIFont'"
       font-size="13px"
       font-weight="400"
       font-style="normal"
       id="g1351" />
    <g
       fill="#dcdcdc"
       fill-opacity="1"
       stroke="none"
       transform="matrix(0.06231136,-5.6704277,5.6704277,0.06231136,64.054782,1089.1435)"
       font-family="'.AppleSystemUIFont'"
       font-size="13px"
       font-weight="400"
       font-style="normal"
       id="g1355"
       style="fill:#6c5353">
      <path
         vector-effect="none"
         fill-rule="nonzero"
         d="m 175.927,137.452 -1.049,-10.091 2.984,-0.31 1.049,10.091 -2.984,0.31"
         id="path1353"
         style="fill:#6c5353" />
    </g>
    <g
       fill="none"
       stroke="#000000"
       stroke-opacity="1"
       stroke-width="1"
       stroke-linecap="square"
       stroke-linejoin="bevel"
       transform="matrix(5.67077,0,0,5.67077,-81.7822,-82.8339)"
       font-family="'.AppleSystemUIFont'"
       font-size="13px"
       font-weight="400"
       font-style="normal"
       id="g1357" />
    <g
       fill="none"
       stroke="#000000"
       stroke-opacity="1"
       stroke-width="1"
       stroke-linecap="square"
       stroke-linejoin="bevel"
       transform="matrix(5.67077,0,0,5.67077,-81.7822,-82.8339)"
       font-family="'.AppleSystemUIFont'"
       font-size="13px"
       font-weight="400"
       font-style="normal"
       id="g1359" />
    <g
       fill="#dcdcdc"
       fill-opacity="1"
       stroke="none"
       transform="matrix(0.06231136,-5.6704277,5.6704277,0.06231136,64.054782,1089.1435)"
       font-family="'.AppleSystemUIFont'"
       font-size="13px"
       font-weight="400"
       font-style="normal"
       id="g1363"
       style="fill:#6c5353">
      <path
         vector-effect="none"
         fill-rule="nonzero"
         d="m 171.994,122.438 1.421,-5.098 2.89,0.805 -1.421,5.099 -2.89,-0.806"
         id="path1361"
         style="fill:#6c5353" />
    </g>
    <g
       fill="none"
       stroke="#000000"
       stroke-opacity="1"
       stroke-width="1"
       stroke-linecap="square"
       stroke-linejoin="bevel"
       transform="matrix(5.67077,0,0,5.67077,-81.7822,-82.8339)"
       font-family="'.AppleSystemUIFont'"
       font-size="13px"
       font-weight="400"
       font-style="normal"
       id="g1365" />
    <g
       fill="none"
       stroke="#000000"
       stroke-opacity="1"
       stroke-width="1"
       stroke-linecap="square"
       stroke-linejoin="bevel"
       transform="matrix(5.67077,0,0,5.67077,-81.7822,-82.8339)"
       font-family="'.AppleSystemUIFont'"
       font-size="13px"
       font-weight="400"
       font-style="normal"
       id="g1367" />
    <g
       fill="#dcdcdc"
       fill-opacity="1"
       stroke="none"
       transform="matrix(0.06231136,-5.6704277,5.6704277,0.06231136,64.054782,1089.1435)"
       font-family="'.AppleSystemUIFont'"
       font-size="13px"
       font-weight="400"
       font-style="normal"
       id="g1371"
       style="fill:#6c5353">
      <path
         vector-effect="none"
         fill-rule="nonzero"
         d="m 179.741,124.626 1.409,-5.112 2.892,0.797 -1.409,5.112 -2.892,-0.797"
         id="path1369"
         style="fill:#6c5353" />
    </g>
    <g
       fill="none"
       stroke="#000000"
       stroke-opacity="1"
       stroke-width="1"
       stroke-linecap="square"
       stroke-linejoin="bevel"
       transform="matrix(5.67077,0,0,5.67077,-81.7822,-82.8339)"
       font-family="'.AppleSystemUIFont'"
       font-size="13px"
       font-weight="400"
       font-style="normal"
       id="g1373" />
    <g
       fill="none"
       stroke="#000000"
       stroke-opacity="1"
       stroke-width="1"
       stroke-linecap="square"
       stroke-linejoin="bevel"
       font-family="'.AppleSystemUIFont'"
       font-size="13px"
       font-weight="400"
       font-style="normal"
       id="g1375" />
  </g>
</svg>
